<svg width="259" height="40" viewBox="0 0 259 40" fill="none" xmlns="http://www.w3.org/2000/svg">
<path d="M7.992 5.73602V32.76H20.952L20.136 39H0.119995V5.73602H7.992Z" fill="#0F0F0F"/>
<path d="M45.3862 39H38.8102L38.4742 35.784C36.6182 38.472 34.0422 39.816 30.7462 39.816C28.4102 39.816 26.6342 39.112 25.4182 37.704C24.2342 36.296 23.6422 34.328 23.6422 31.8V13.512H31.2262V30.84C31.2262 32.088 31.4182 32.968 31.8022 33.48C32.2182 33.96 32.8422 34.2 33.6742 34.2C35.2742 34.2 36.6502 33.208 37.8022 31.224V13.512H45.3862V39Z" fill="#0F0F0F"/>
<path d="M62.391 12.696C64.151 12.696 65.735 12.952 67.143 13.464C68.551 13.976 69.879 14.76 71.127 15.816L67.863 20.328C66.263 19.112 64.647 18.504 63.015 18.504C61.319 18.504 60.039 19.128 59.175 20.376C58.311 21.624 57.879 23.64 57.879 26.424C57.879 29.112 58.311 31.016 59.175 32.136C60.039 33.256 61.287 33.816 62.919 33.816C63.783 33.816 64.567 33.688 65.271 33.432C65.975 33.144 66.823 32.696 67.815 32.088L71.127 36.792C68.599 38.808 65.735 39.816 62.535 39.816C59.943 39.816 57.703 39.272 55.815 38.184C53.927 37.064 52.471 35.512 51.447 33.528C50.423 31.512 49.911 29.16 49.911 26.472C49.911 23.784 50.423 21.4 51.447 19.32C52.471 17.24 53.927 15.624 55.815 14.472C57.703 13.288 59.895 12.696 62.391 12.696Z" fill="#0F0F0F"/>
<path d="M97.2157 5.73602L96.4477 11.784H88.2397V39H80.3677V11.784H71.7757V5.73602H97.2157Z" fill="#0F0F0F"/>
<path d="M131.524 13.512L126.244 39H117.172L113.764 20.28L110.404 39H101.428L96.0045 13.512H103.684L106.324 33.336L110.308 13.512H117.7L121.204 33.336L124.276 13.512H131.524Z" fill="#0F0F0F"/>
<path d="M145.782 12.696C149.686 12.696 152.742 13.896 154.95 16.296C157.158 18.664 158.262 21.992 158.262 26.28C158.262 29 157.75 31.384 156.726 33.432C155.734 35.448 154.294 37.016 152.406 38.136C150.55 39.256 148.342 39.816 145.782 39.816C141.91 39.816 138.854 38.632 136.614 36.264C134.406 33.864 133.302 30.52 133.302 26.232C133.302 23.512 133.798 21.144 134.79 19.128C135.814 17.08 137.254 15.496 139.11 14.376C140.998 13.256 143.222 12.696 145.782 12.696ZM145.782 18.264C144.246 18.264 143.094 18.92 142.326 20.232C141.558 21.512 141.174 23.512 141.174 26.232C141.174 29.016 141.542 31.048 142.278 32.328C143.046 33.608 144.214 34.248 145.782 34.248C147.318 34.248 148.47 33.608 149.238 32.328C150.006 31.016 150.39 29 150.39 26.28C150.39 23.496 150.006 21.464 149.238 20.184C148.502 18.904 147.35 18.264 145.782 18.264Z" fill="#0F0F0F"/>
<path d="M188.549 39H178.517L168.917 13.224C169.237 15.752 169.477 17.992 169.637 19.944C169.829 21.864 169.925 24.152 169.925 26.808V39H162.917V5.73602H172.709L182.549 31.56C181.845 27.176 181.493 23.048 181.493 19.176V5.73602H188.549V39Z" fill="#0F0F0F"/>
<path d="M202.185 13.512V39H194.601V13.512H202.185ZM198.345 0.0720215C199.657 0.0720215 200.729 0.488022 201.561 1.32002C202.425 2.12002 202.857 3.14402 202.857 4.39202C202.857 5.64002 202.425 6.68002 201.561 7.51202C200.729 8.31202 199.657 8.71202 198.345 8.71202C197.033 8.71202 195.961 8.31202 195.129 7.51202C194.297 6.68002 193.881 5.64002 193.881 4.39202C193.881 3.14402 194.297 2.12002 195.129 1.32002C195.961 0.488022 197.033 0.0720215 198.345 0.0720215Z" fill="#0F0F0F"/>
<path d="M223.076 12.696C225.284 12.696 227.012 13.368 228.26 14.712C229.508 16.056 230.132 17.944 230.132 20.376V39H222.548V21.672C222.548 20.392 222.34 19.512 221.924 19.032C221.54 18.52 220.948 18.264 220.148 18.264C218.612 18.264 217.14 19.368 215.732 21.576V39H208.148V13.512H214.772L215.3 16.536C216.388 15.256 217.556 14.296 218.804 13.656C220.084 13.016 221.508 12.696 223.076 12.696Z" fill="#0F0F0F"/>
<path d="M258.075 25.752C258.075 26.808 258.027 27.72 257.931 28.488H242.139C242.395 30.632 243.003 32.136 243.963 33C244.923 33.864 246.251 34.296 247.947 34.296C248.971 34.296 249.963 34.12 250.923 33.768C251.883 33.384 252.923 32.808 254.043 32.04L257.163 36.264C254.187 38.632 250.875 39.816 247.227 39.816C243.099 39.816 239.931 38.6 237.723 36.168C235.515 33.736 234.411 30.472 234.411 26.376C234.411 23.784 234.875 21.464 235.803 19.416C236.731 17.336 238.091 15.704 239.883 14.52C241.675 13.304 243.819 12.696 246.315 12.696C249.995 12.696 252.875 13.848 254.955 16.152C257.035 18.456 258.075 21.656 258.075 25.752ZM250.635 23.592C250.571 19.688 249.195 17.736 246.507 17.736C245.195 17.736 244.171 18.216 243.435 19.176C242.731 20.136 242.299 21.72 242.139 23.928H250.635V23.592Z" fill="#0F0F0F"/>
</svg>
